<svg version="1.1" id="Layer_1" xmlns="http://www.w3.org/2000/svg" xmlns:xlink="http://www.w3.org/1999/xlink" x="0" y="0" width="314.8" height="54.8" xml:space="preserve"><style>.st1{fill:#bf9900}.st4{fill:#002666}.st9{clip-path:url(#SVGID_16_);fill:#bf9900}</style><defs><path id="SVGID_1_" d="M0 0h314.8v54.8H0z"/></defs><clipPath id="SVGID_2_"><use xlink:href="#SVGID_1_" overflow="visible"/></clipPath><path d="M217.7 25.3l2.8-7.1.5.4c1.7 1.3 4 2.5 6.2 2.5 1.9 0 2.9-.5 2.6-2-.2-1.2-1.6-1.4-2.5-1.6l-1.9-.4c-3.7-.7-6.8-2.9-6.8-7 0-6.3 5.7-9.9 11.3-9.9 3 0 5.7.7 8.3 2.3l-2.4 6.3c-1.3-.9-3.3-2.2-5.9-2.3-.8 0-2.7.4-2.1 2.3.3.8 1.4 1.1 2.2 1.3l2.2.5c4 .9 6.9 3.1 6.9 7.6 0 6.3-5.7 9.5-11.3 9.5-3.4 0-7.2-.9-10.1-2.4" clip-path="url(#SVGID_2_)" fill="#bf9900"/><path class="st1" d="M205.9.7h9.7v26.6h-9.7zM195 .7l-4.2 16.1L186.5.7h-9.8l10.1 26.6h8L204.9.7z"/><defs><path id="SVGID_3_" d="M0 0h314.8v54.8H0z"/></defs><clipPath id="SVGID_4_"><use xlink:href="#SVGID_3_" overflow="visible"/></clipPath><path d="M167.6 8.4c.2 1.1 1.9 9.3 1.9 9.3h-3.8l1.9-9.3zm-14.4 18.9h10.1l.7-3.3h7.2l1 3.3h10.1L172.9.7h-10.6l-9.1 26.6zM128.3.7h9.9c8.8 0 15.6 3.9 15.6 13.7 0 7.9-5.5 12.9-13.3 12.9h-12.3V.7zm9.7 19h.6c3.2 0 5.6-1.8 5.6-5.3 0-3.7-2.1-5.8-5.6-5.8h-.6v11.1zM122.5 1.5l.5 4.4c.1 1 .7 3.5 0 3.2-.5-.2-.9-1.3-1.3-2.3-.2-.5-1.1-2.9-1.4-3.1-1.2-.9-4.2-1.8-6.2-1.8-6.1 0-10.1 4.3-10.1 12 0 5.5 2.7 12.1 9.7 12.1 2.5 0 7.3-.8 8.6-4.2.6-1.5 1.1-2.9 1.5-2.5.3.3-.1 1.5-.3 2.2-.8 3.2-.9 4.1-1.1 4.3-3.2 1.5-7.2 2-10.7 2-11.2 0-15.1-6.3-15.1-12.6 0-11 7-15.6 17.8-15.1 2.8 0 5.5.5 8.1 1.4M89.3 2l-1.8-.6c-.6-.5.1-.7.1-.7s2.6.5 9.1-.1c0 0 .6.1.2.5l-2.1.9c-1.4.6-1.4.2-1.4 1.7v13.6C93.4 28 82.1 27.7 80 27.7c-1 0-11.3 0-11.3-8.5V4.9c0-2.5.3-2.4-.6-2.7l-2.6-.9s-.4-.6.3-.6c2.1.1 5.2.5 12.4 0 0 0 .6.1.2.6l-2.2.6c-1.6.7-1.4.2-1.5 1.8l.1 14.2c0 3.5 1.9 7.8 7.7 7.8 7.9 0 8-6.6 8-8.1v-14c.2-1.5 0-1.1-1.2-1.6" clip-path="url(#SVGID_4_)" fill="#bf9900"/><path class="st1" d="M68.6 33.2h246.2v1.1H68.6z"/><defs><path id="SVGID_5_" d="M0 0h314.8v54.8H0z"/></defs><clipPath id="SVGID_6_"><use xlink:href="#SVGID_5_" overflow="visible"/></clipPath><path d="M76.2 44.4c-.3-.3-.7-.5-1.1-.6-.4-.2-.8-.2-1.3-.2-.2 0-.3 0-.5.1-.2 0-.3.1-.5.2s-.3.2-.4.4-.2.3-.2.5.1.4.2.5c.1.1.2.3.4.4.2.1.3.2.5.2.2.1.4.1.5.2l.9.3c.5.1.9.3 1.4.5.4.2.8.4 1.1.7.3.3.5.6.7 1 .2.4.3.9.3 1.4 0 .3 0 .7-.1 1 0 .3-.1.7-.2 1-.1.3-.3.6-.4.9-.2.3-.4.5-.7.8-.5.4-1.2.8-1.8 1-.7.2-1.4.3-2.1.3-.9 0-1.7-.1-2.6-.4-.8-.3-1.6-.6-2.3-1.1l1.5-2.8c.2.2.5.4.7.5.2.2.5.3.8.4.3.1.5.2.8.3.3.1.6.1.9.1.2 0 .4 0 .6-.1.2-.1.4-.1.6-.2.2-.1.3-.3.4-.4.1-.2.2-.4.2-.6 0-.2-.1-.4-.2-.6-.2-.2-.3-.3-.6-.4-.2-.1-.5-.2-.7-.3-.3-.1-.5-.1-.7-.2-.6-.2-1.1-.3-1.5-.5-.5-.2-.9-.4-1.2-.7-.3-.3-.6-.6-.8-1-.2-.4-.3-.9-.3-1.6 0-.7.1-1.3.4-1.8.2-.6.6-1 1-1.4.4-.4.9-.7 1.5-.9.6-.2 1.2-.3 1.9-.3.3 0 .7 0 1.1.1.4.1.8.1 1.1.2.4.1.7.2 1.1.3.4.1.7.3 1 .5l-1.4 2.3zm15.3 1.1c-.2-.2-.4-.5-.6-.6-.2-.2-.5-.3-.8-.5l-.9-.3c-.3-.1-.6-.1-.9-.1-.6 0-1.1.1-1.5.3-.5.2-.8.5-1.2.8-.3.3-.6.7-.8 1.2-.2.5-.3.9-.3 1.5 0 .5.1 1 .3 1.5.2.4.4.8.8 1.1.3.3.7.6 1.2.8.5.2 1 .3 1.5.3.3 0 .6 0 .9-.1.3-.1.6-.2.8-.3.3-.1.5-.3.8-.4.2-.2.5-.4.6-.6v4.2c-.3.1-.6.2-.8.2-.3.1-.5.1-.8.2-.3.1-.5.1-.8.1h-.8c-1 0-1.9-.2-2.8-.5-.9-.3-1.7-.8-2.4-1.5-.8-.7-1.3-1.4-1.7-2.3-.4-.9-.5-1.8-.5-2.8 0-.9.2-1.8.5-2.6s.9-1.6 1.5-2.3c.3-.3.7-.6 1.1-.9.4-.3.8-.5 1.3-.7.5-.2.9-.3 1.4-.4.5-.1 1-.1 1.5-.1.6 0 1.1.1 1.7.2.5.1 1.1.3 1.6.5v4.1z" fill="#002666" clip-path="url(#SVGID_6_)"/><path class="st4" d="M104.4 41v5.1h-5.3V41h-3.6v13.4h3.6v-5.5h5.3v5.5h3.6V41z"/><defs><path id="SVGID_7_" d="M0 0h314.8v54.8H0z"/></defs><clipPath id="SVGID_8_"><use xlink:href="#SVGID_7_" overflow="visible"/></clipPath><path d="M118.4 43.9c-.5 0-1 .1-1.5.3-.5.2-.9.5-1.2.8-.4.3-.6.7-.8 1.1-.2.4-.3.9-.3 1.3 0 .6.1 1.1.3 1.6.2.5.5.9.8 1.3.4.4.8.6 1.2.8.5.2 1 .3 1.5.3s1-.1 1.5-.3c.5-.2.9-.5 1.2-.8.4-.4.6-.8.8-1.3.2-.5.3-1 .3-1.6 0-.5-.1-.9-.3-1.3-.2-.4-.5-.8-.8-1.1-.4-.3-.8-.6-1.2-.8-.4-.2-.9-.3-1.5-.3m0-3.4c.7 0 1.3.1 2 .2.6.2 1.2.4 1.8.7.6.3 1.1.6 1.6 1s.9.9 1.2 1.4c.3.5.6 1.1.8 1.7.2.6.3 1.2.3 1.9 0 1.1-.2 2.1-.6 3-.4.9-.9 1.7-1.6 2.3-.7.7-1.5 1.2-2.4 1.5-.9.4-2 .5-3.1.5-.7 0-1.5-.1-2.1-.2-.7-.2-1.3-.4-1.9-.7-.6-.3-1.1-.7-1.5-1.1-.5-.4-.8-.9-1.2-1.5-.3-.5-.6-1.1-.7-1.8-.2-.6-.3-1.3-.3-2s.1-1.3.3-1.9c.2-.6.5-1.2.8-1.7.3-.5.8-1 1.2-1.4.5-.4 1-.8 1.6-1 .6-.3 1.2-.5 1.8-.7.7-.1 1.4-.2 2-.2m17.9 3.4c-.5 0-1 .1-1.5.3-.5.2-.9.5-1.2.8-.4.3-.6.7-.8 1.1-.2.4-.3.9-.3 1.3 0 .6.1 1.1.3 1.6.2.5.5.9.8 1.3.4.4.8.6 1.2.8.5.2 1 .3 1.5.3s1-.1 1.5-.3c.5-.2.9-.5 1.2-.8.4-.4.6-.8.8-1.3.2-.5.3-1 .3-1.6 0-.5-.1-.9-.3-1.3-.2-.4-.5-.8-.8-1.1-.4-.3-.8-.6-1.2-.8-.4-.2-1-.3-1.5-.3m0-3.4c.7 0 1.3.1 2 .2.6.2 1.2.4 1.8.7.6.3 1.1.6 1.6 1s.9.9 1.2 1.4c.3.5.6 1.1.8 1.7.2.6.3 1.2.3 1.9 0 1.1-.2 2.1-.6 3-.4.9-.9 1.7-1.6 2.3-.7.7-1.5 1.2-2.4 1.5-.9.4-2 .5-3.1.5-.7 0-1.5-.1-2.1-.2-.7-.2-1.3-.4-1.9-.7-.6-.3-1.1-.7-1.5-1.1-.5-.4-.8-.9-1.2-1.5-.3-.5-.6-1.1-.7-1.8-.2-.6-.3-1.3-.3-2s.1-1.3.3-1.9c.2-.6.5-1.2.8-1.7.3-.5.8-1 1.2-1.4.5-.4 1-.8 1.6-1 .6-.3 1.2-.5 1.8-.7.7-.1 1.3-.2 2-.2" clip-path="url(#SVGID_8_)" fill="#002666"/><path class="st4" d="M147 41v13.4h7.9v-3h-4.3V41z"/><defs><path id="SVGID_9_" d="M0 0h314.8v54.8H0z"/></defs><clipPath id="SVGID_10_"><use xlink:href="#SVGID_9_" overflow="visible"/></clipPath><path d="M169 46.9c-.4 0-.7.1-1.1.2-.3.1-.6.3-.9.6-.3.2-.5.5-.6.8-.2.3-.2.6-.2.9 0 .4.1.8.2 1.1.1.3.3.6.6.9.3.3.6.5.9.6.3.1.7.2 1.1.2.4 0 .8-.1 1.1-.2.3-.1.6-.3.9-.6.3-.3.5-.6.6-.9.1-.3.2-.7.2-1.1 0-.3-.1-.6-.2-.9-.1-.3-.3-.6-.6-.8-.3-.2-.5-.4-.9-.6-.3-.1-.7-.2-1.1-.2m0-2.4c.5 0 .9.1 1.4.2.5.1.9.3 1.3.5s.8.4 1.1.7c.3.3.6.6.9 1l.6 1.2c.1.4.2.9.2 1.4 0 .8-.1 1.5-.4 2.1-.3.6-.7 1.2-1.1 1.7-.5.5-1.1.8-1.7 1.1-.7.3-1.4.4-2.2.4-.5 0-1-.1-1.5-.2s-.9-.3-1.3-.5-.8-.5-1.1-.8c-.3-.3-.6-.7-.8-1.1-.2-.4-.4-.8-.5-1.3-.1-.5-.2-.9-.2-1.5 0-.5.1-.9.2-1.4.1-.4.3-.8.6-1.2.2-.4.5-.7.9-1 .3-.3.7-.5 1.1-.7.4-.2.8-.4 1.3-.5.3-.1.8-.1 1.2-.1" clip-path="url(#SVGID_10_)" fill="#002666"/><path class="st4" d="M176.2 44.8v9.6h2.6v-3.8h2.9v-2.1h-2.9v-1.6h3.1v-2.1zm14.5-3.8v13.4h7.9v-3h-4.3v-2.3h4.1v-2.9h-4.1v-2.3h4.3V41z"/><defs><path id="SVGID_11_" d="M0 0h314.8v54.8H0z"/></defs><clipPath id="SVGID_12_"><use xlink:href="#SVGID_11_" overflow="visible"/></clipPath><path d="M206.8 51.4h.8c.5 0 1.1-.1 1.5-.2.5-.1.9-.4 1.3-.7.4-.3.7-.7.9-1.2.2-.5.3-1 .3-1.7 0-.6-.1-1.1-.3-1.6-.2-.5-.5-.9-.8-1.2-.4-.3-.8-.6-1.3-.7-.5-.2-1-.2-1.6-.2h-.9v7.5zM203.2 41h5.1c.6 0 1.3.1 1.9.2.6.2 1.2.4 1.7.7.5.3 1 .6 1.4 1 .4.4.8.9 1.1 1.4.3.5.5 1 .7 1.6.2.6.3 1.2.3 1.8 0 .6-.1 1.2-.3 1.8-.2.6-.4 1.1-.7 1.6-.3.5-.7.9-1.1 1.4-.4.4-.9.7-1.4 1-.5.3-1.1.5-1.7.7-.6.2-1.2.2-1.9.2h-5.1V41zm27.4 0v8.8c0 .4-.1.8-.2 1.2-.1.4-.2.8-.4 1.2-.2.4-.5.7-.8 1-.3.3-.6.5-1 .7-.4.2-.8.3-1.2.5l-1.2.3c-.4.1-.8.1-1.2.1-.4 0-.8 0-1.2-.1-.4 0-.8-.1-1.2-.3-.4-.1-.8-.3-1.1-.5s-.7-.4-1-.7c-.3-.3-.6-.7-.8-1-.2-.4-.3-.8-.4-1.2-.1-.4-.2-.8-.2-1.2V41h3.6v7.9c0 .3 0 .6.1.8.1.3.1.5.2.8.1.2.2.4.4.6.2.2.4.3.7.4.3.1.6.1 1 .1s.7 0 1-.1c.3-.1.5-.2.7-.4.2-.2.3-.4.4-.6.1-.2.2-.5.2-.8.1-.3.1-.5.1-.8V41h3.5zm13.9 4.5c-.2-.2-.4-.5-.6-.6-.2-.2-.5-.3-.8-.5l-.9-.3c-.3-.1-.6-.1-.9-.1-.6 0-1.1.1-1.5.3-.5.2-.8.5-1.2.8-.3.3-.6.7-.8 1.2-.2.5-.3.9-.3 1.5 0 .5.1 1 .3 1.5.2.4.4.8.8 1.1.3.3.7.6 1.2.8.5.2 1 .3 1.5.3.3 0 .6 0 .9-.1.3-.1.6-.2.8-.3.3-.1.5-.3.8-.4.2-.2.5-.4.6-.6v4.2c-.3.1-.6.2-.8.2-.3.1-.5.1-.8.2-.3.1-.5.1-.8.1h-.8c-1 0-1.9-.2-2.8-.5-.9-.3-1.7-.8-2.4-1.5-.8-.7-1.3-1.4-1.7-2.3-.4-.9-.5-1.8-.5-2.8 0-.9.2-1.8.5-2.6s.9-1.6 1.5-2.3c.3-.3.7-.6 1.1-.9.4-.3.8-.5 1.3-.7.5-.2.9-.3 1.4-.4.5-.1 1-.1 1.5-.1.6 0 1.1.1 1.7.2.5.1 1.1.3 1.6.5v4.1z" clip-path="url(#SVGID_12_)" fill="#002666"/><path class="st4" d="M254.4 45.1l1.5 4.3h-3l1.5-4.3zm-2-4.1L247 54.4h3.8l1-2.3h5l.9 2.3h3.9L256.4 41h-4zm10.1 0v2.9h3v10.5h3.6V43.9h3V41zm13 0h3.6v13.4h-3.6z"/><defs><path id="SVGID_13_" d="M0 0h314.8v54.8H0z"/></defs><clipPath id="SVGID_14_"><use xlink:href="#SVGID_13_" overflow="visible"/></clipPath><path d="M290 43.9c-.5 0-1 .1-1.5.3-.5.2-.9.5-1.2.8-.4.3-.6.7-.8 1.1-.2.4-.3.9-.3 1.3 0 .6.1 1.1.3 1.6.2.5.5.9.8 1.3.4.4.8.6 1.2.8.5.2 1 .3 1.5.3s1-.1 1.5-.3c.5-.2.9-.5 1.2-.8.4-.4.6-.8.8-1.3.2-.5.3-1 .3-1.6 0-.5-.1-.9-.3-1.3-.2-.4-.5-.8-.8-1.1-.4-.3-.8-.6-1.2-.8-.5-.2-1-.3-1.5-.3m0-3.4c.7 0 1.3.1 2 .2.6.2 1.2.4 1.8.7.6.3 1.1.6 1.6 1s.9.9 1.2 1.4c.3.5.6 1.1.8 1.7.2.6.3 1.2.3 1.9 0 1.1-.2 2.1-.6 3-.4.9-.9 1.7-1.6 2.3-.7.7-1.5 1.2-2.4 1.5-.9.4-2 .5-3.1.5-.7 0-1.5-.1-2.1-.2-.7-.2-1.3-.4-1.9-.7-.6-.3-1.1-.7-1.5-1.1-.5-.4-.8-.9-1.2-1.5-.3-.5-.6-1.1-.7-1.8-.2-.6-.3-1.3-.3-2s.1-1.3.3-1.9c.2-.6.5-1.2.8-1.7.3-.5.8-1 1.2-1.4.5-.4 1-.8 1.6-1 .6-.3 1.2-.5 1.8-.7.7-.1 1.3-.2 2-.2" clip-path="url(#SVGID_14_)" fill="#002666"/><path class="st4" d="M311.1 41v8.2l-6.6-8.2h-3.6v13.4h3.6v-8.2l6.6 8.2h3.7V41z"/><defs><path id="SVGID_15_" d="M0 0h314.8v54.8H0z"/></defs><clipPath id="SVGID_16_"><use xlink:href="#SVGID_15_" overflow="visible"/></clipPath><path class="st9" d="M20.2 51.6h-2.3l-1.3-4.4h12.7c-3.7-8.5-8.3-6.4-11.4-14.5-3.4-8.8 6.1-20 6.1-20-1.7 5.2.1 8.6 2.5 11.8-1.1-3.1-.1-6.9-.1-6.9-.5-.5-2-3.4-1.1-7.4.9-4 3.1-2.9 3-9.4H0v53.7h21l-.8-2.9z"/><path d="M37.9 15.5C35 22 32.1 21.3 30 26.4c-.6-1.1-3.6-3.4-1.9-7.3 2.2-5 7.7-6.7 5.4-15.8.1 0 7.2 5.9 4.4 12.2M28.5.7c.6.6 3.6 3.8 2.7 7.7-1.1 4.5-3.4 4.2-4.8 9.2 0 0-1 3.8.1 6.9.6.8 1.3 1.7 2 2.5 0 0 4 5.2 4.8 7.7 2.4 8-3 12.2-3.8 12.4h10.4l-1.3 4.5h-2.3l-.8 2.8h20.3V.7H28.5z" clip-path="url(#SVGID_16_)" fill="#002666"/><path class="st9" d="M23.5 34.2c1.6 3.8 4.8 3.8 6 10.7 0 0 1.9-3.7.3-7.9-1.3-3.5-5.6-4.4-6.6-9 .1 0-1.3 2.1.3 6.2"/></svg>